<?xml version="1.0" standalone="no"?>
<!DOCTYPE svg PUBLIC "-//W3C//DTD SVG 20010904//EN"
 "http://www.w3.org/TR/2001/REC-SVG-20010904/DTD/svg10.dtd">
<svg version="1.0" xmlns="http://www.w3.org/2000/svg"
 width="300.000000pt" height="300.000000pt" viewBox="0 0 300.000000 300.000000"
 preserveAspectRatio="xMidYMid meet">
<metadata>
Created by potrace 1.11, written by Peter Selinger 2001-2013
</metadata>
<g transform="translate(0.000000,300.000000) scale(0.100000,-0.100000)"
fill="#000000" stroke="none">
<path d="M0 1500 l0 -1500 1500 0 1500 0 0 1500 0 1500 -1500 0 -1500 0 0
-1500z m2477 978 l23 -21 0 -514 0 -514 -25 -24 c-23 -24 -30 -25 -140 -25
l-115 0 0 40 0 40 100 0 100 0 -2 478 -3 477 -475 0 -475 0 -3 -97 -3 -98 -39
0 -40 0 0 115 c0 110 1 117 25 140 l24 25 512 0 c513 0 513 0 536 -22z m-1337
-398 l0 -60 60 0 60 0 0 60 0 60 40 0 40 0 0 -60 0 -60 60 0 60 0 0 60 0 60
40 0 40 0 0 -60 0 -60 60 0 60 0 0 60 0 60 40 0 40 0 0 -60 0 -60 60 0 60 0 0
60 0 60 40 0 40 0 0 -58 c0 -55 1 -58 31 -69 19 -8 34 -23 42 -42 11 -30 14
-31 69 -31 l58 0 0 -40 0 -40 -60 0 -60 0 0 -60 0 -60 60 0 60 0 0 -40 0 -40
-60 0 -60 0 0 -60 0 -60 60 0 60 0 0 -40 0 -40 -60 0 -60 0 0 -60 0 -60 60 0
60 0 0 -40 0 -40 -60 0 -60 0 0 -60 0 -60 60 0 60 0 0 -40 0 -40 -58 0 c-55 0
-58 -1 -69 -31 -8 -19 -23 -34 -42 -42 -30 -11 -31 -14 -31 -69 l0 -58 -40 0
-40 0 0 60 0 60 -60 0 -60 0 0 -60 0 -60 -40 0 -40 0 0 60 0 60 -60 0 -60 0 0
-60 0 -60 -40 0 -40 0 0 60 0 60 -60 0 -60 0 0 -60 0 -60 -40 0 -40 0 0 60 0
60 -60 0 -60 0 0 -60 0 -60 -40 0 -40 0 0 58 c0 54 -2 58 -29 70 -17 7 -36 26
-43 43 -12 27 -16 29 -70 29 l-58 0 0 40 0 40 60 0 60 0 0 60 0 60 -60 0 -60
0 0 40 0 40 60 0 60 0 0 60 0 60 -60 0 -60 0 0 40 0 40 60 0 60 0 0 60 0 60
-60 0 -60 0 0 40 0 40 60 0 60 0 0 60 0 60 -60 0 -60 0 0 40 0 40 58 0 c55 0
58 1 69 31 8 19 23 34 42 42 30 11 31 14 31 69 l0 58 40 0 40 0 0 -60z m-360
-500 l0 -40 -100 0 -100 0 0 -480 0 -480 478 2 477 3 3 98 3 97 39 0 40 0 0
-115 c0 -110 -1 -117 -25 -140 l-24 -25 -511 0 -511 0 -24 25 -25 24 0 511 0
511 25 24 c23 24 30 25 140 25 l115 0 0 -40z"/>
<path d="M1060 1500 l0 -440 440 0 440 0 0 440 0 440 -440 0 -440 0 0 -440z"/>
</g>
</svg>
